<?xml version="1.0" encoding="UTF-8" standalone="no"?>
<!DOCTYPE svg PUBLIC "-//W3C//DTD SVG 1.1//EN" "http://www.w3.org/Graphics/SVG/1.1/DTD/svg11.dtd">
<svg width="100%" height="100%" viewBox="0 0 20 20" version="1.1" xmlns="http://www.w3.org/2000/svg" xmlns:xlink="http://www.w3.org/1999/xlink" xml:space="preserve" xmlns:serif="http://www.serif.com/" style="fill-rule:evenodd;clip-rule:evenodd;stroke-linejoin:round;stroke-miterlimit:2;">
    <g transform="matrix(0.4,0,0,0.4,0,0)">
        <path d="M25,0.197C38.689,0.197 49.803,11.311 49.803,25C49.803,38.689 38.689,49.803 25,49.803C11.311,49.803 0.197,38.689 0.197,25C0.197,11.311 11.311,0.197 25,0.197ZM16.863,17.366C16.793,17.367 16.723,17.368 16.654,17.37L16.601,17.372C16.584,17.373 16.566,17.373 16.549,17.374L16.497,17.377C16.337,17.386 16.177,17.4 16.018,17.419C15.942,17.429 15.866,17.439 15.79,17.451L15.764,17.455L15.712,17.464C15.695,17.467 15.677,17.47 15.66,17.472L15.612,17.481C15.591,17.485 15.57,17.489 15.549,17.493L15.503,17.502C15.485,17.505 15.468,17.509 15.451,17.512L15.398,17.523L15.346,17.534L15.297,17.545C15.26,17.553 15.223,17.562 15.186,17.571L15.137,17.583L15.09,17.595C15.04,17.608 14.99,17.621 14.94,17.635C14.852,17.659 14.764,17.686 14.676,17.713L14.666,17.716L14.615,17.733C14.598,17.739 14.58,17.744 14.563,17.75L14.511,17.768C14.493,17.774 14.476,17.78 14.458,17.786L14.411,17.802C14.253,17.858 14.095,17.92 13.937,17.987L13.885,18.009C13.837,18.03 13.79,18.051 13.742,18.072C13.693,18.095 13.643,18.118 13.593,18.141L13.572,18.151C13.53,18.171 13.488,18.192 13.447,18.213C13.407,18.233 13.367,18.253 13.328,18.273C13.241,18.318 13.155,18.364 13.071,18.412L13.036,18.432L12.992,18.457C12.924,18.497 12.856,18.537 12.79,18.579L12.775,18.588C11.243,19.542 10.193,20.936 9.624,22.718C9.474,23.189 9.37,23.661 9.313,24.133C9.302,24.223 9.293,24.314 9.286,24.404C9.267,24.631 9.259,24.857 9.261,25.084C9.262,25.193 9.266,25.303 9.272,25.412L9.274,25.444L9.276,25.482C9.325,26.22 9.487,26.955 9.76,27.685C10.324,29.195 11.283,30.401 12.608,31.309C13.728,32.077 14.973,32.509 16.328,32.605C18,32.723 19.549,32.333 20.975,31.445C21.738,30.97 22.351,30.33 22.978,29.702C24.233,28.446 25.489,27.191 26.745,25.935C27.84,24.84 28.941,23.75 30.027,22.646C30.306,22.363 30.594,22.098 30.908,21.874C30.935,21.854 30.963,21.835 30.99,21.816L31.002,21.808C31.012,21.801 31.023,21.794 31.033,21.787L31.064,21.767C31.172,21.696 31.283,21.631 31.399,21.571L31.422,21.559C31.433,21.553 31.444,21.548 31.455,21.542L31.476,21.532C31.495,21.523 31.514,21.513 31.533,21.504C31.567,21.489 31.6,21.474 31.634,21.459C31.735,21.415 31.84,21.376 31.947,21.341L31.972,21.333C31.991,21.327 32.01,21.321 32.03,21.316L32.076,21.302L32.125,21.289C33.141,21.018 34.195,21.189 35.056,21.69L35.063,21.695C35.116,21.725 35.168,21.758 35.22,21.791L35.255,21.814C35.268,21.823 35.28,21.831 35.293,21.84L35.308,21.85C35.626,22.069 35.912,22.337 36.151,22.646L36.181,22.685L36.202,22.713C36.309,22.857 36.406,23.01 36.492,23.172C36.591,23.357 36.675,23.554 36.742,23.76L36.756,23.806C36.761,23.822 36.766,23.838 36.771,23.854C36.782,23.891 36.792,23.927 36.802,23.964C36.831,24.07 36.856,24.175 36.877,24.279C36.895,24.365 36.909,24.45 36.921,24.535C36.942,24.686 36.954,24.835 36.958,24.983C36.96,25.093 36.958,25.202 36.951,25.31C36.897,26.132 36.561,26.896 35.939,27.588C35.124,28.495 34.081,28.906 32.865,28.836C31.83,28.776 30.97,28.331 30.255,27.586C29.855,27.168 29.441,26.765 29.043,26.365C28.147,27.26 27.263,28.142 26.362,29.041L26.378,29.057C26.669,29.348 26.966,29.636 27.254,29.933C27.834,30.531 28.436,31.103 29.158,31.529C30.869,32.537 32.707,32.87 34.651,32.467C36.286,32.129 37.647,31.357 38.719,30.172C38.784,30.1 38.848,30.027 38.911,29.951L38.941,29.915C38.952,29.902 38.963,29.89 38.973,29.877C39.013,29.829 39.051,29.78 39.09,29.731L39.119,29.693C39.177,29.619 39.234,29.542 39.29,29.464C39.346,29.386 39.402,29.306 39.456,29.225C39.686,28.881 39.885,28.529 40.054,28.17C40.068,28.14 40.082,28.109 40.095,28.079C40.116,28.033 40.136,27.987 40.156,27.941L40.165,27.92L40.173,27.901C40.36,27.458 40.5,27.004 40.595,26.54C40.613,26.452 40.629,26.364 40.643,26.276C40.664,26.151 40.681,26.026 40.695,25.9L40.699,25.862C40.7,25.848 40.702,25.833 40.703,25.819L40.705,25.799C40.708,25.772 40.71,25.744 40.713,25.717C40.744,25.345 40.748,24.967 40.723,24.584C40.706,24.33 40.678,24.074 40.636,23.816C40.619,23.709 40.6,23.603 40.579,23.497C40.536,23.278 40.484,23.063 40.425,22.853L40.42,22.835C40.378,22.689 40.333,22.545 40.284,22.404C40.249,22.305 40.213,22.207 40.175,22.111L40.172,22.103L40.153,22.057L40.135,22.011C40.128,21.996 40.122,21.981 40.116,21.966L40.097,21.92L40.085,21.894C40.076,21.873 40.067,21.851 40.057,21.829L40.039,21.789C39.985,21.67 39.928,21.552 39.868,21.436L39.851,21.403C39.792,21.291 39.73,21.18 39.665,21.071C39.64,21.029 39.615,20.988 39.589,20.946C39.358,20.576 39.093,20.228 38.795,19.903C38.73,19.832 38.664,19.763 38.597,19.695L38.573,19.672L38.546,19.644C38.447,19.547 38.345,19.452 38.24,19.359L38.209,19.331L38.177,19.304C38.162,19.291 38.147,19.278 38.132,19.265C38.061,19.204 37.988,19.145 37.914,19.087C37.845,19.031 37.774,18.977 37.701,18.924C37.595,18.845 37.485,18.768 37.373,18.693C37.337,18.669 37.301,18.645 37.265,18.622C35.188,17.279 32.95,17.031 30.607,17.802L30.55,17.821L30.494,17.841L30.49,17.842C30.385,17.879 30.281,17.918 30.179,17.959C30.152,17.97 30.125,17.982 30.099,17.993C29.824,18.109 29.56,18.242 29.306,18.39L29.272,18.41C29.256,18.42 29.239,18.43 29.222,18.44L29.194,18.457C29.107,18.51 29.02,18.565 28.935,18.622C28.73,18.758 28.532,18.904 28.34,19.059L28.318,19.076L28.304,19.088C28.021,19.318 27.75,19.568 27.489,19.833C26.179,21.167 24.849,22.482 23.527,23.805C22.262,25.069 20.993,26.329 19.735,27.6C19.342,27.997 18.917,28.307 18.456,28.518L18.442,28.525L18.431,28.53C18.068,28.693 17.684,28.795 17.276,28.831L17.265,28.832C17.006,28.854 16.738,28.849 16.46,28.816C15.779,28.735 15.178,28.519 14.674,28.168C14.574,28.098 14.478,28.023 14.385,27.943C14.343,27.906 14.301,27.868 14.26,27.828C14.249,27.818 14.239,27.808 14.229,27.798C13.926,27.501 13.672,27.142 13.469,26.721C13.146,26.05 13.001,25.394 13.035,24.76L13.036,24.74C13.037,24.729 13.037,24.717 13.038,24.706L13.041,24.672L13.043,24.647C13.048,24.587 13.055,24.527 13.063,24.467C13.07,24.42 13.077,24.373 13.086,24.326C13.104,24.227 13.127,24.128 13.155,24.031L13.164,23.997L13.167,23.988C13.185,23.927 13.204,23.866 13.226,23.805L13.234,23.782C13.406,23.306 13.688,22.846 14.078,22.407C14.888,21.496 15.941,21.096 17.157,21.172C18.185,21.236 19.038,21.681 19.748,22.421C20.148,22.838 20.562,23.242 20.952,23.633C21.852,22.736 22.739,21.851 23.641,20.952C23.269,20.585 22.883,20.215 22.51,19.832C22.258,19.574 21.996,19.329 21.72,19.102C21.53,18.945 21.332,18.797 21.127,18.659C21.077,18.625 21.026,18.592 20.975,18.56L20.958,18.548L20.921,18.525L20.893,18.508C20.691,18.383 20.481,18.269 20.263,18.166C20.244,18.157 20.225,18.148 20.206,18.14C20.069,18.076 19.931,18.016 19.793,17.959L19.74,17.938L19.715,17.928C19.654,17.904 19.593,17.881 19.531,17.858L19.479,17.839C18.848,17.61 18.217,17.463 17.585,17.401L17.543,17.397L17.498,17.393C17.286,17.375 17.075,17.366 16.863,17.366Z" style="fill:rgb(209,35,42);"/>
    </g>
</svg>
