<?xml version="1.0" encoding="UTF-8" standalone="no"?>
<!DOCTYPE svg PUBLIC "-//W3C//DTD SVG 1.1//EN" "http://www.w3.org/Graphics/SVG/1.1/DTD/svg11.dtd">
<svg width="100%" height="100%" viewBox="0 0 20 20" version="1.1" xmlns="http://www.w3.org/2000/svg" xmlns:xlink="http://www.w3.org/1999/xlink" xml:space="preserve" xmlns:serif="http://www.serif.com/" style="fill-rule:evenodd;clip-rule:evenodd;stroke-linejoin:round;stroke-miterlimit:2;">
    <g transform="matrix(0.4,0,0,0.4,0,0)">
        <path d="M25,0.197C38.689,0.197 49.803,11.311 49.803,25C49.803,38.689 38.689,49.803 25,49.803C11.311,49.803 0.197,38.689 0.197,25C0.197,11.311 11.311,0.197 25,0.197ZM25.192,42.851C26.124,41.393 26.889,39.811 27.457,38.124C29.631,38.855 31.771,38.438 33.589,37.304C35.407,36.17 36.961,34.337 38.253,32.188C38.439,31.886 38.436,31.505 38.247,31.205C37.47,30.044 36.353,29.296 35.137,28.963C33.921,28.63 32.579,28.699 31.369,29.229C30.347,29.677 29.433,30.456 28.679,31.482C28.754,29.741 28.62,28.005 28.334,26.307C30.408,25.963 32.012,24.4 33.078,22.414C34.228,20.271 34.865,17.599 35.01,14.938C35.028,14.573 34.832,14.231 34.507,14.064C32.073,12.81 29.207,13.907 27.534,16.195C26.867,17.109 26.37,18.243 26.119,19.491C25.685,18.637 25.221,17.799 24.683,17.015C25.01,16.285 25.142,15.498 25.048,14.746C24.922,13.743 24.403,12.833 23.64,12.003C22.113,10.343 19.559,8.975 16.069,7.801C16.015,7.777 15.96,7.758 15.903,7.745C15.497,7.687 15.1,7.903 14.928,8.276C13.916,10.415 14.167,13.046 15.645,15.079C17.065,17.031 19.662,18.329 23.173,18.132C25.507,21.566 26.755,25.864 26.798,30.237C26.589,29.753 26.357,29.255 26.048,28.819C24.489,26.621 21.776,25.115 18.23,24.35C17.728,24.241 17.233,24.561 17.125,25.063C17.121,25.078 17.118,25.094 17.116,25.11C16.546,28.536 17.616,31.251 19.355,33.222C21.093,35.193 23.466,36.478 25.621,37.475C25.644,37.495 25.668,37.513 25.694,37.531C25.109,39.27 24.282,40.889 23.262,42.366C24.2,44.4 25.192,42.851 25.192,42.851ZM34.636,30.726C35.255,30.893 35.791,31.272 36.269,31.797C35.165,33.497 33.926,34.905 32.619,35.721C31.401,36.48 30.151,36.676 28.821,36.436C29.189,33.396 30.599,31.632 32.136,30.958C32.978,30.59 33.841,30.512 34.636,30.726ZM19.005,26.604C21.553,27.352 23.489,28.446 24.52,29.899C25.529,31.322 25.723,33.122 25.277,35.214C23.583,34.35 21.933,33.348 20.746,32.003C19.526,30.62 18.925,28.842 19.005,26.604ZM33.032,15.53C32.831,17.724 32.314,19.917 31.435,21.555C30.616,23.081 29.567,23.927 28.377,24.267C27.374,21.341 27.886,18.861 29.039,17.284C30.137,15.781 31.653,15.166 33.032,15.53ZM16.467,9.989C19.192,11.016 21.253,12.156 22.267,13.259C22.841,13.883 23.124,14.446 23.19,14.98C23.241,15.382 23.057,15.826 22.847,16.275C19.985,16.379 18.153,15.374 17.146,13.989C16.27,12.785 16.158,11.314 16.467,9.989Z" style="fill:rgb(209,35,42);"/>
    </g>
</svg>
