<?xml version="1.0" encoding="UTF-8" standalone="no"?>
<!DOCTYPE svg PUBLIC "-//W3C//DTD SVG 1.1//EN" "http://www.w3.org/Graphics/SVG/1.1/DTD/svg11.dtd">
<svg width="100%" height="100%" viewBox="0 0 20 20" version="1.1" xmlns="http://www.w3.org/2000/svg" xmlns:xlink="http://www.w3.org/1999/xlink" xml:space="preserve" xmlns:serif="http://www.serif.com/" style="fill-rule:evenodd;clip-rule:evenodd;stroke-linejoin:round;stroke-miterlimit:2;">
    <g transform="matrix(0.4,0,0,0.4,0,0)">
        <path d="M25,0.197C38.689,0.197 49.803,11.311 49.803,25C49.803,38.689 38.689,49.803 25,49.803C11.311,49.803 0.197,38.689 0.197,25C0.197,11.311 11.311,0.197 25,0.197ZM33.097,23.678C32.467,23.678 31.955,24.19 31.955,24.821L31.955,35.67C31.955,36.063 31.636,36.382 31.243,36.382L18.726,36.382C18.333,36.382 18.014,36.063 18.014,35.67L18.014,24.821C18.014,24.19 17.503,23.678 16.872,23.678C16.241,23.678 15.729,24.19 15.729,24.821L15.729,35.67C15.729,37.325 17.071,38.667 18.726,38.667L31.243,38.667C32.898,38.667 34.24,37.325 34.24,35.67L34.24,24.821C34.24,24.19 33.728,23.678 33.097,23.678ZM23.612,32.962L23.612,19.06C23.612,18.429 23.1,17.917 22.469,17.917C21.839,17.917 21.327,18.429 21.327,19.06L21.327,32.962C21.327,33.593 21.839,34.105 22.469,34.105C23.1,34.105 23.612,33.593 23.612,32.962ZM28.654,32.962L28.654,19.06C28.654,18.429 28.142,17.917 27.511,17.917C26.88,17.917 26.369,18.429 26.369,19.06L26.369,32.962C26.369,33.593 26.88,34.105 27.511,34.105C28.142,34.105 28.654,33.593 28.654,32.962ZM32.591,11.333L17.336,11.333C15.395,11.333 13.765,11.954 12.618,13.096C11.498,14.258 10.89,15.82 10.928,17.434C10.878,18.831 11.398,20.188 12.367,21.196C13.294,22.088 14.535,22.578 15.821,22.559C18.144,22.559 19.96,20.971 20.139,18.812C20.295,16.885 18.863,15.194 16.937,15.031C16.306,14.978 15.752,15.447 15.699,16.078C15.646,16.709 16.115,17.263 16.746,17.315C17.418,17.372 17.917,17.962 17.862,18.633C17.774,19.711 16.761,20.278 15.81,20.286C15.131,20.306 14.472,20.055 13.978,19.589C13.447,19.005 13.173,18.233 13.216,17.445C13.174,16.439 13.541,15.458 14.233,14.726C14.949,14.014 16.034,13.633 17.371,13.63L32.602,13.63C33.95,13.63 35.043,14.01 35.767,14.726C36.459,15.458 36.826,16.439 36.784,17.445C36.827,18.233 36.553,19.005 36.022,19.589C35.526,20.052 34.869,20.302 34.19,20.286C33.239,20.286 32.225,19.711 32.138,18.633C32.083,17.962 32.582,17.372 33.254,17.315C33.884,17.263 34.353,16.709 34.301,16.078C34.248,15.447 33.694,14.978 33.063,15.031C31.137,15.194 29.705,16.885 29.861,18.812C30.04,20.971 31.856,22.547 34.179,22.559L34.206,22.559C35.484,22.579 36.717,22.088 37.633,21.196C38.602,20.188 39.122,18.831 39.072,17.434C39.11,15.82 38.502,14.258 37.381,13.096C36.205,11.927 34.552,11.333 32.591,11.333Z" style="fill:rgb(209,35,42);"/>
    </g>
</svg>
