<?xml version="1.0" encoding="UTF-8" standalone="no"?>
<!DOCTYPE svg PUBLIC "-//W3C//DTD SVG 1.1//EN" "http://www.w3.org/Graphics/SVG/1.1/DTD/svg11.dtd">
<svg width="100%" height="100%" viewBox="0 0 20 20" version="1.1" xmlns="http://www.w3.org/2000/svg" xmlns:xlink="http://www.w3.org/1999/xlink" xml:space="preserve" xmlns:serif="http://www.serif.com/" style="fill-rule:evenodd;clip-rule:evenodd;stroke-linejoin:round;stroke-miterlimit:2;">
    <g transform="matrix(0.4,0,0,0.4,0,0)">
        <path d="M25,0.197C38.689,0.197 49.803,11.311 49.803,25C49.803,38.689 38.689,49.803 25,49.803C11.311,49.803 0.197,38.689 0.197,25C0.197,11.311 11.311,0.197 25,0.197ZM25.081,34.822C21.318,34.822 18.256,31.761 18.256,27.998C18.256,24.235 21.318,21.173 25.081,21.173C28.844,21.173 31.905,24.235 31.905,27.998C31.905,31.761 28.844,34.822 25.081,34.822ZM25.081,25.331C23.61,25.331 22.414,26.527 22.414,27.998C22.414,29.468 23.61,30.665 25.081,30.665C26.551,30.665 27.747,29.468 27.747,27.998C27.747,26.527 26.551,25.331 25.081,25.331ZM38.701,26.219C33.863,21.381 28.93,19.075 24.041,19.36C16.64,19.792 11.671,25.976 11.622,26.039L8.359,23.46C8.608,23.146 14.555,15.748 23.799,15.209C29.926,14.854 35.928,17.566 41.641,23.28L38.701,26.219Z" style="fill:rgb(209,35,42);"/>
    </g>
</svg>
