<?xml version="1.0" encoding="UTF-8" standalone="no"?>
<!DOCTYPE svg PUBLIC "-//W3C//DTD SVG 1.1//EN" "http://www.w3.org/Graphics/SVG/1.1/DTD/svg11.dtd">
<svg width="100%" height="100%" viewBox="0 0 20 20" version="1.1" xmlns="http://www.w3.org/2000/svg" xmlns:xlink="http://www.w3.org/1999/xlink" xml:space="preserve" xmlns:serif="http://www.serif.com/" style="fill-rule:evenodd;clip-rule:evenodd;stroke-linejoin:round;stroke-miterlimit:2;">
    <g transform="matrix(0.4,0,0,0.4,0,0)">
        <path d="M25,0.197C38.689,0.197 49.803,11.311 49.803,25C49.803,38.689 38.689,49.803 25,49.803C11.311,49.803 0.197,38.689 0.197,25C0.197,11.311 11.311,0.197 25,0.197ZM25.158,41.009C13.861,38.456 11.608,33.11 13.454,27.666C16.686,18.131 25.799,11.804 22.394,6.535C29.029,11.263 33.684,18.545 31.462,26.306C35.051,22.62 33.574,15.053 29.636,12.175C37.696,16.001 40.885,34.685 27.34,37.013C31.837,34.612 32.504,26.695 28.547,26.506C25.996,26.384 22.692,34.615 26.56,40.202C22.475,36.437 21.341,30.875 23.955,25.921C27.042,20.068 29.412,18.012 24.684,10.905C27.237,17.068 18.791,20.62 17.047,28.717C15.459,36.088 21.297,39.12 25.158,41.009Z" style="fill:rgb(209,35,42);"/>
    </g>
</svg>
