<?xml version="1.0" encoding="UTF-8" standalone="no"?>
<!DOCTYPE svg PUBLIC "-//W3C//DTD SVG 1.1//EN" "http://www.w3.org/Graphics/SVG/1.1/DTD/svg11.dtd">
<svg width="100%" height="100%" viewBox="0 0 20 20" version="1.1" xmlns="http://www.w3.org/2000/svg" xmlns:xlink="http://www.w3.org/1999/xlink" xml:space="preserve" xmlns:serif="http://www.serif.com/" style="fill-rule:evenodd;clip-rule:evenodd;stroke-linejoin:round;stroke-miterlimit:2;">
    <g transform="matrix(0.4,0,0,0.4,0,0)">
        <path d="M25,0.197C38.689,0.197 49.803,11.311 49.803,25C49.803,38.689 38.689,49.803 25,49.803C11.311,49.803 0.197,38.689 0.197,25C0.197,11.311 11.311,0.197 25,0.197ZM41.222,25C41.222,16.041 33.959,8.778 25,8.778C16.041,8.778 8.778,16.041 8.778,25C8.778,33.959 16.041,41.222 25,41.222C33.959,41.222 41.222,33.959 41.222,25ZM38.226,26.458C37.552,32.642 32.642,37.552 26.458,38.226L26.458,26.458L38.226,26.458ZM23.542,38.226C17.358,37.552 12.448,32.642 11.774,26.458L23.542,26.458L23.542,38.226ZM23.542,11.774L23.542,23.542L11.774,23.542C12.448,17.358 17.358,12.448 23.542,11.774ZM26.458,11.774C32.642,12.448 37.552,17.358 38.226,23.542L26.458,23.542L26.458,11.774Z" style="fill:rgb(209,35,42);"/>
    </g>
</svg>
